<?xml version="1.0" standalone="no"?>
<!DOCTYPE svg PUBLIC "-//W3C//DTD SVG 20010904//EN"
 "http://www.w3.org/TR/2001/REC-SVG-20010904/DTD/svg10.dtd">
<svg version="1.0" xmlns="http://www.w3.org/2000/svg"
 width="148.000000pt" height="152.000000pt" viewBox="0 0 148.000000 152.000000"
 preserveAspectRatio="xMidYMid meet">

<g transform="translate(0.000000,152.000000) scale(0.100000,-0.100000)"
fill="#000000" stroke="none">
<path d="M715 1445 c-66 -48 -86 -82 -93 -160 -5 -62 -6 -66 -38 -81 -49 -24
-99 -83 -124 -150 -27 -73 -23 -113 20 -201 18 -35 30 -66 28 -67 -1 -2 -36
-11 -76 -21 -88 -21 -221 -84 -279 -131 -59 -48 -97 -129 -88 -186 8 -52 45
-119 81 -147 42 -33 118 -29 180 10 27 17 64 45 82 62 37 35 42 33 68 -38 23
-64 103 -144 164 -166 l45 -16 -1 -52 -2 -53 29 28 c17 16 32 39 36 51 3 16
23 32 58 49 85 40 149 123 176 228 l12 48 56 -55 c85 -84 144 -117 207 -117
61 0 92 20 128 83 39 69 43 118 11 182 -15 31 -45 70 -68 89 -64 53 -198 113
-305 137 -54 12 -101 25 -106 30 -5 4 2 29 15 56 16 32 25 71 27 118 2 39 8
74 13 79 5 6 9 17 9 25 0 10 -6 7 -17 -9 -24 -36 -34 -41 -68 -35 -36 6 -55
29 -55 65 0 60 81 82 119 34 14 -18 21 -22 21 -11 0 23 -50 58 -80 56 -14 -1
-47 8 -73 22 -43 21 -47 26 -42 49 17 69 126 180 178 180 10 0 32 -14 48 -31
16 -17 34 -29 41 -27 20 7 21 48 2 69 -14 16 -26 18 -73 13 -31 -4 -72 -15
-91 -26 -44 -24 -96 -92 -116 -152 l-16 -46 -59 0 -59 0 0 40 c0 47 30 112 62
134 17 12 35 14 70 10 40 -6 49 -4 54 11 5 12 0 24 -15 37 -31 25 -39 23 -96
-17z m62 -270 c56 -23 64 -33 51 -59 -15 -34 13 -81 58 -98 35 -12 36 -14 30
-56 -6 -44 -31 -102 -50 -114 -24 -16 -103 -8 -130 13 -16 13 -31 18 -36 13
-17 -17 34 -63 82 -73 l33 -7 -25 -14 c-14 -8 -52 -14 -85 -14 -186 -1 -282
208 -161 350 55 67 155 91 233 59z m289 -466 c162 -49 286 -139 300 -216 8
-42 -17 -111 -51 -143 -54 -50 -123 -24 -236 89 l-76 76 -12 78 c-6 43 -16 87
-21 97 -25 46 -5 50 96 19z m-596 7 c0 -2 -7 -21 -16 -41 -8 -21 -18 -78 -21
-127 l-6 -89 -55 -50 c-94 -86 -159 -104 -207 -59 -34 32 -59 101 -51 143 9
51 66 109 146 151 97 51 210 90 210 72z m465 -73 c6 -35 4 -40 -32 -70 -109
-94 -229 -112 -348 -54 -37 18 -69 39 -72 47 -3 8 -2 30 1 50 7 34 8 35 29 22
87 -56 196 -64 299 -23 37 15 74 35 84 46 24 27 31 24 39 -18z m-5 -243 c-13
-50 -40 -77 -112 -113 -119 -60 -265 -22 -309 80 -28 65 -26 79 9 54 92 -65
208 -74 312 -24 36 17 74 38 85 46 25 20 29 9 15 -43z"/>
<path d="M655 1170 c-29 -12 -61 -51 -69 -83 -16 -66 56 -136 126 -123 101 19
117 162 23 202 -38 16 -51 16 -80 4z m103 -46 c43 -48 19 -124 -45 -140 -40
-10 -76 7 -96 47 -45 93 71 171 141 93z"/>
<path d="M700 1109 c0 -12 -8 -23 -20 -26 -26 -7 -25 -19 1 -33 16 -9 26 -8
45 5 28 18 29 23 8 53 -19 28 -34 28 -34 1z"/>
<path d="M910 1126 c0 -9 -4 -16 -10 -16 -5 0 -10 -7 -10 -16 0 -10 7 -14 23
-12 16 2 22 10 22 27 0 13 -6 26 -12 29 -7 2 -13 -3 -13 -12z"/>
</g>
</svg>
